<?xml version="1.0" encoding="UTF-8" standalone="no"?>
<svg
   xmlns="http://www.w3.org/2000/svg"
   xmlns:xlink="http://www.w3.org/1999/xlink"
   width="660"
   height="220"
   version="1.1"
   id="imrs-logo"
   enable-background="new">
  <metadata
     id="metadata15">
    <rdf:RDF>
      <cc:Work>
        <dc:format>image/svg+xml</dc:format>
        <dc:type />
      </cc:Work>
    </rdf:RDF>
  </metadata>
  <sodipodi:namedview
     pagecolor="#ffffff"
     bordercolor="#666666"
     borderopacity="1"
     objecttolerance="10"
     gridtolerance="10"
     guidetolerance="10"
     id="namedview13"
     showgrid="false" />
  <defs
     id="defs7">
    <linearGradient
       id="linearGradient4730">
      <stop
         style="stop-color:#e6e6e6;stop-opacity:1;"
         offset="0"
         id="stop4726" />
      <stop
         style="stop-color:#e6e6e6;stop-opacity:0;"
         offset="1"
         id="stop4728" />
    </linearGradient>
    <linearGradient
       id="linearGradient4664">
      <stop
         style="stop-color:#e6e6e6;stop-opacity:1;"
         offset="0"
         id="stop4660" />
      <stop
         style="stop-color:#e6e6e6;stop-opacity:0;"
         offset="1"
         id="stop4662" />
    </linearGradient>
    <linearGradient
       id="linear"
       x1="5.7735027"
       y1="17.320508"
       x2="352.18366"
       y2="17.320508"
       gradientTransform="matrix(0.44878799,0,0,0.08450378,-186.79808,61.140277)"
       gradientUnits="userSpaceOnUse">
      <stop
         offset="0%"
         stop-color="#05a"
         id="stop2" />
      <stop
         offset="100%"
         stop-color="#0a5"
         id="stop4" />
    </linearGradient>
    <linearGradient
       xlink:href="#linearGradient4664"
       id="i-gradient"
       x1="83.888054"
       y1="121.19942"
       x2="125.33125"
       y2="32.330986"
       gradientUnits="userSpaceOnUse"
       gradientTransform="matrix(1,0,0,1.0132135,73.210468,3.2942449)" />
    <linearGradient
       xlink:href="#linearGradient4664"
       id="m-gradient-1"
       gradientUnits="userSpaceOnUse"
       gradientTransform="matrix(0.98668435,0,0,0.605793,127.9926,80.267267)"
       x1="83.888054"
       y1="121.19942"
       x2="125.33125"
       y2="32.330986" />
    <linearGradient
       xlink:href="#linearGradient4664"
       id="m-gradient-2"
       gradientUnits="userSpaceOnUse"
       gradientTransform="matrix(0.98668435,0,0,0.605793,179.9926,80.267267)"
       x1="83.888054"
       y1="121.19942"
       x2="125.33125"
       y2="32.330986" />
    <linearGradient
       xlink:href="#linearGradient4730"
       id="m-gradient-3"
       x1="153.25677"
       y1="139.12274"
       x2="286.41733"
       y2="34.828476"
       gradientUnits="userSpaceOnUse"
       gradientTransform="translate(54)" />
    <linearGradient
       xlink:href="#linearGradient4664"
       id="r-gradient"
       gradientUnits="userSpaceOnUse"
       gradientTransform="matrix(1.8615289,0,-0.53210934,0.97205656,249.37335,3.1604322)"
       x1="84.374428"
       y1="79.730972"
       x2="124.8338"
       y2="58.825943" />
    <linearGradient
       xlink:href="#linearGradient4664"
       id="g-gradient"
       gradientUnits="userSpaceOnUse"
       gradientTransform="matrix(1,0,-0.28584534,0.97205661,381.8196,3.1604321)"
       x1="121.59502"
       y1="105.87272"
       x2="180.53329"
       y2="82.909103" />
  </defs>
  <g
     id="logo-group">
    <g
       id="s-group"
       style="display:inline">
      <path
         style="opacity:1;fill:url(#g-gradient);fill-opacity:1;stroke-width:2"
         d="m 481.34869,34.6811 c 5.41681,-1.062999 16.56012,-0.09312 16.56012,-0.09312 h 39.99999 l -7.76937,26.620435 -33.20012,-0.07465 c 0,0 -5.50625,-0.491616 -9.17244,3.484059 -2.12814,2.307782 -3.45999,5.284152 -3.62509,8.818133 -0.14159,3.030908 -0.38779,4.799942 2.77569,8.669122 3.386,4.141349 7.0453,4.858666 7.0453,4.858666 0,0 4.81128,2.029896 7.21163,3.057284 3.47375,1.486826 7.1239,2.623768 10.40578,4.496432 4.18779,2.38959 8.24515,5.14372 11.69492,8.512219 2.34863,2.29331 4.46694,4.9103 5.98333,7.82164 2.34626,4.50462 4.1083,9.46875 4.61008,14.52292 0.49597,4.99553 -1.6452,14.97013 -1.6452,14.97013 0,0 -3.00333,12.74237 -5.80509,18.603 -2.31748,4.84763 -5.24957,9.51349 -8.96034,13.39943 -3.89158,4.07528 -8.53621,7.57153 -13.60427,10.03465 -7.62485,3.70572 -21.12985,3.90724 -21.12985,3.90724 l -60.96256,5e-5 7.75931,-26.62738 48.86252,0.37246 c 0,0 3.62714,0.0634 6.0399,-0.17472 3.57249,-0.35257 10.88979,-1.58283 13.45273,-6.48088 1.62454,-3.10465 2.54741,-5.38535 3.58748,-8.1728 0.81628,-2.18764 1.75406,-4.37782 2.07432,-6.69072 0.55427,-4.00302 1.88655,-8.01822 -0.30859,-12.11969 -1.42972,-2.67133 -2.46121,-4.57585 -4.33223,-6.31066 -2.37745,-2.20439 -5.47478,-3.50987 -8.41121,-4.88426 -2.67331,-1.25126 -5.58465,-1.92208 -8.31983,-3.03162 -3.99986,-1.62256 -8.17005,-2.98661 -11.81692,-5.29571 -4.38276,-2.77505 -9.0022,-5.76428 -11.82618,-10.11567 -2.54984,-3.928973 -3.46196,-8.81867 -3.99282,-13.47235 -0.51819,-4.542668 0.14951,-9.170556 0.83564,-13.69091 0.6564,-4.32458 1.98142,-9.36629 3.12318,-12.745256 1.87757,-5.556594 2.35414,-6.93815 4.38603,-9.933663 1.80201,-2.656624 3.88798,-4.647943 6.74712,-6.871712 3.52867,-2.542265 8.04246,-4.639002 11.727,-5.362102 z"
         id="s-path" />
    </g>
    <g
       id="r-group"
       style="display:inline">
      <path
         style="opacity:1;fill:url(#r-gradient);fill-opacity:1;stroke-width:2"
         d="m 364.37069,34.587984 h 73.78218 c 0,0 3.99749,-0.04718 5.3301,1.283926 1.54043,1.538696 1.12287,4.418033 1.12287,4.418033 l -22.94288,78.081497 c 0,0 -0.19477,0.79008 -0.6915,1.13187 -0.51561,0.35475 -1.19397,0.41683 -1.19397,0.41683 l -5.79308,-0.0989 c 0,0 -0.47497,0.007 -0.57865,0.62364 -0.086,0.51181 0.39071,0.89703 0.39071,0.89703 l 3.39643,3.4959 c 0,0 0.82676,1.09561 1.08235,2.00572 0.31315,1.11511 0.1598,2.35583 0.1598,2.35583 l -16.76323,57.0894 h -34.50598 l 18.72961,-63.37243 c 0,0 1.1098,-2.74058 0.0172,-4.69173 -1.20311,-2.14857 -3.68178,-2.10586 -3.68178,-2.10586 l -7.93932,0.0543 -20.61976,70.11574 -33.91056,-3e-5 28.03351,-95.854706 47.57711,0.254547 5.29295,-17.879815 c 0,0 0.56118,-2.724685 -0.56658,-4.387183 -1.69569,-2.499725 -4.37111,-2.437442 -4.37111,-2.437442 l -40.62837,-0.276999 z"
         id="r-path" />
    </g>
    <g
       id="m-group"
       style="display:inline">
      <rect
         style="opacity:1;fill:url(#m-gradient-1);fill-opacity:1;stroke-width:2"
         id="m-rect-1"
         width="34.046513"
         height="94.541061"
         x="217.60846"
         y="99.853157"
         transform="matrix(1,0,-0.28575083,0.95830395,0,0)" />
      <rect
         transform="matrix(1,0,-0.28575083,0.95830395,0,0)"
         y="99.853157"
         x="269.60846"
         height="94.541061"
         width="34.046513"
         id="m-rect-2"
         style="opacity:1;fill:url(#m-gradient-2);fill-opacity:1;stroke-width:2" />
      <path
         style="opacity:1;fill:url(#m-gradient-3);fill-opacity:1;stroke-width:2"
         d="m 206.89742,34.587985 48.90832,-0.354295 74.27961,0.0211 c 0,0 6.48518,-0.293927 9.43825,4.965763 2.20608,3.929239 -0.36646,12.759375 -0.36646,12.759375 l -40.28988,134.025812 -32.30968,0.0648 31.42497,-110.51753 c 0,0 1.05985,-3.962817 -1.72742,-6.7931 -1.93111,-1.960899 -7.32816,-2.213011 -7.32816,-2.213011 l -91.15149,-0.860467 z"
         id="m-path" />
    </g>
    <g
       id="i-group"
       style="display:inline">
      <rect
         transform="matrix(1,0,-0.28211758,0.95937984,0,0)"
         y="36.052441"
         x="164.03574"
         height="158.12376"
         width="34.505985"
         id="i-rect"
         style="opacity:1;fill:url(#i-gradient);fill-opacity:1;stroke-width:2" />
    </g>
  </g>
</svg>
